# xmcd
#
# Track frame offsets:
#	150
#	17746
#	34737
#	50639
#
# Disc length: 876 seconds
#
# Revision: 0
# Processed by: cddbd v1.5.1PL0 Copyright (c) Steve Scherf et al.
# Submitted via: dBpowerAMP V4.0
#
DISCID=2c036a04
DTITLE=Andy Hersey - The Man I Am Today
DYEAR=2004
DGENRE=Country
TTITLE0=Tears On The Floor
TTITLE1=The Man I Am Today
TTITLE2=He's The Reason
TTITLE3=Burnin' Georgia Down
EXTD=
EXTT0=
EXTT1=
EXTT2=
EXTT3=
PLAYORDER=
